# xmcd
#
# Track frame offsets: 
#        150
#        10753
#        34275
#        52540
#        69478
#        82687
#        101323
#        118269
#        138213
#        151419
#        172316
#        188681
#
# Disc length: 2794 seconds
#
# Revision: 0
# Processed by: cddbd v1.4PL0 Copyright (c) Steve Scherf et al.
# Submitted via: ExactAudioCopy v0.90a11
#
DISCID=8d0ae80c
DTITLE=Phil Lee - You Should Have Known Me Then
DYEAR=1900
DGENRE=
TTITLE0=Good for Me
TTITLE1=Babylon
TTITLE2=Just Some Girl
TTITLE3=Carl's Got Louise
TTITLE4=2 For the Price of 1
TTITLE5=Jemima James
TTITLE6=Daddy's Jail
TTITLE7=3 Faces in the Window
TTITLE8=Nobody's Gotta Know
TTITLE9=Any Harder Than It Is
TTITLE10=It's Crying
TTITLE11=You Should Have Known Me Then
EXTD=
EXTT0=
EXTT1=
EXTT2=
EXTT3=
EXTT4=
EXTT5=
EXTT6=
EXTT7=
EXTT8=
EXTT9=
EXTT10=
EXTT11=
PLAYORDER=
